#!OML:ASF I:\Actors\actors\Patient Classification 2\Patient 1\Session 1\actor1.ASF
:FULLY-SPECIFIED
:DEGREES
581
root -0.473028 18.8301 5.32404 22.9076 11.1246 -6.14869
lowerback 24.873 3.80339 9.33854
upperback 5.05279 7.56148 3.27626
thorax -7.38607 3.4346 -3.92405
lowerneck -2.63119 -11.1314 -16.0744
upperneck -5.20922 -14.329 16.1274
head 1.28121 -7.09182 6.91191
rclavicle 1.27222e-014 -4.92986e-014
rhumerus -23.5743 0.0531864 -59.8799
rradius 67.7275
rwrist 11.0023
rhand -10.3089 -44.3289
rfingers 7.12502
rthumb 15.6862 -73.7131
lclavicle 1.27222e-014 -4.92986e-014
lhumerus 52.3792 -36.4995 38.5191
lradius 90.885
lwrist 19.8799
lhand -0.232098 -3.93812
lfingers 7.12502
lthumb 25.368 24.3944
rfemur -17.7144 -9.58743 24.0953
rtibia 6.91771e-014
rfoot -14.9782 -13.1503
rtoes 0.114379
lfemur -42.9471 -2.75395 -5.85566
ltibia 36.0681
lfoot -13.4265 5.42982
ltoes -56.6677
582
root -0.450899 18.821 5.30516 23.4294 10.9298 -6.2054
lowerback 24.5002 3.93447 9.03765
upperback 5.02565 7.60214 3.15655
thorax -7.2431 3.46856 -3.86794
lowerneck -2.83612 -11.1007 -16.0131
upperneck -5.41881 -14.2445 16.4489
head 1.26587 -7.04676 7.00309
rclavicle -4.29375e-014 1.59028e-015
rhumerus -23.9276 0.0893527 -60.158
rradius 68.1667
rwrist 10.7566
rhand -10.4399 -44.4669
rfingers 7.12502
rthumb 15.56 -73.8609
lclavicle -4.29375e-014 1.59028e-015
lhumerus 52.876 -36.395 38.8534
lradius 89.9733
lwrist 19.5863
lhand -0.510817 -4.15546
lfingers 7.12502
lthumb 25.101 24.2147
rfemur -18.4129 -9.37736 24.0846
rtibia -3.81667e-014
rfoot -14.7985 -13.2995
rtoes -0.304135
lfemur -43.6257 -2.54283 -5.90303
ltibia 36.232
lfoot -13.4398 5.56201
ltoes -56.6523
583
root -0.433007 18.8199 5.31033 23.0928 11.2114 -6.21475
lowerback 25.0094 3.75738 8.9878
upperback 5.16511 7.40332 3.12343
thorax -7.37306 3.36886 -3.86214
lowerneck -3.10539 -11.0545 -16.0662
upperneck -5.50737 -14.137 16.9439
head 1.3166 -6.98615 7.15919
rclavicle 1.33583e-013 0
rhumerus -24.2662 0.234245 -60.4537
rradius 68.6661
rwrist 10.3635
rhand -10.4736 -44.6731
rfingers 7.12502
rthumb 15.5275 -74.0696
lclavicle 1.33583e-013 0
lhumerus 53.3533 -36.1912 39.1521
lradius 88.9925
lwrist 19.1333
lhand -0.342536 -4.5619
lfingers 7.12502
lthumb 25.2622 23.7856
rfemur -17.9619 -9.67239 24.0879
rtibia 7.95139e-016
rfoot -14.9338 -13.1713
rtoes -0.0286276
lfemur -43.3672 -2.73344 -5.92038
ltibia 36.3693
lfoot -13.5867 5.37077
ltoes -56.7022
584
root -0.411634 18.8145 5.30326 23.0893 11.2235 -6.3772
lowerback 25.2841 3.73586 8.94207
upperback 5.13358 7.38648 3.02376
thorax -7.54233 3.3487 -3.96782
lowerneck -3.16988 -11.0135 -15.9995
upperneck -5.6512 -14.0622 17.4068
head 1.31222 -6.95244 7.29866
rclavicle -1.59028e-014 5.08889e-014
rhumerus -24.8219 0.319998 -60.7941
rradius 69.2297
rwrist 9.95694
rhand -10.529 -44.7987
rfingers 7.12502
rthumb 15.4742 -74.1994
lclavicle -1.59028e-014 5.08889e-014
lhumerus 53.8432 -36.1747 39.3806
lradius 88.0526
lwrist 18.7549
lhand -0.0965766 -4.59394
lfingers 7.12502
lthumb 25.4979 23.7201
rfemur -18.0017 -9.63693 24.1878
rtibia 4.77083e-015
rfoot -14.9216 -13.1655
rtoes 0.00476557
lfemur -43.4742 -2.70595 -5.81625
ltibia 36.5086
lfoot -13.737 5.34886
ltoes -56.6573
585
root -0.391084 18.8095 5.29603 23.287 11.189 -6.46646
lowerback 25.4051 3.79219 8.49012
upperback 4.97267 7.37445 3.05737
thorax -7.85165 3.32999 -3.70118
lowerneck -3.14719 -10.8805 -15.8131
upperneck -5.67695 -13.8865 17.5248
head 1.27095 -6.86979 7.326
rclavicle -4.77083e-015 4.77083e-014
rhumerus -25.4511 0.72221 -61.0102
rradius 69.8115
rwrist 9.56867
rhand -10.6997 -44.8303
rfingers 7.12502
rthumb 15.3097 -74.2436
lclavicle -4.77083e-015 4.77083e-014
lhumerus 53.9306 -36.2728 39.9559
lradius 87.1382
lwrist 18.4278
lhand -0.0386767 -4.40353
lfingers 7.12502
lthumb 25.5533 23.9025
rfemur -18.2578 -9.57421 24.2338
rtibia -2.22639e-014
rfoot -14.9023 -13.2073
rtoes -0.175647
lfemur -43.7574 -2.62058 -5.80124
ltibia 36.6134
lfoot -13.8395 5.37736
ltoes -56.6423
586
root -0.366899 18.8054 5.29106 23.3535 11.164 -6.51027
lowerback 25.4636 3.84097 8.24124
upperback 5.05422 7.36869 3.03791
thorax -7.82038 3.33581 -3.58507
lowerneck -3.44932 -10.8522 -15.7706
upperneck -5.73795 -13.8036 17.8176
head 1.3133 -6.81937 7.40227
rclavicle -7.79236e-014 2.54444e-014
rhumerus -25.7792 0.753975 -61.1595
rradius 70.2988
rwrist 9.33602
rhand -10.7916 -44.8505
rfingers 7.12502
rthumb 15.2213 -74.2705
lclavicle -7.79236e-014 2.54444e-014
lhumerus 54.4677 -36.236 40.3253
lradius 86.2013
lwrist 18.1172
lhand -0.0272054 -4.27921
lfingers 7.12502
lthumb 25.5643 24.0253
rfemur -18.355 -9.55373 24.2031
rtibia -3.97569e-014
rfoot -14.8851 -13.2754
rtoes -0.576555
lfemur -43.9007 -2.60479 -5.85287
ltibia 36.7394
lfoot -13.9555 5.4263
ltoes -56.659
587
root -0.342767 18.8001 5.28386 23.4645 11.2434 -6.52251
lowerback 25.5417 3.79825 8.18577
upperback 5.09796 7.28782 2.88783
thorax -7.80514 3.29931 -3.6998
lowerneck -3.69837 -10.8228 -15.6995
upperneck -5.90901 -13.717 18.3648
head 1.33654 -6.77301 7.55975
rclavicle -4.13472e-014 3.18055e-015
rhumerus -26.0735 0.645026 -61.4921
rradius 70.7272
rwrist 9.16726
rhand -10.8189 -44.8763
rfingers 7.12502
rthumb 15.195 -74.2984
lclavicle -4.13472e-014 3.18055e-015
lhumerus 55.0947 -36.2406 40.3805
lradius 85.3191
lwrist 17.9778
lhand -0.00432587 -4.13476
lfingers 7.12502
lthumb 25.5862 24.1666
rfemur -18.4964 -9.63737 24.1956
rtibia -2.38542e-015
rfoot -14.8247 -13.344
rtoes -0.830543
lfemur -44.1236 -2.63043 -5.90453
ltibia 36.8349
lfoot -14.002 5.40556
ltoes -56.6024
588
root -0.322127 18.7921 5.26566 23.99 11.0889 -6.60255
lowerback 25.0034 4.01038 7.61558
upperback 5.14649 7.37001 3.01288
thorax -7.56006 3.36772 -3.22356
lowerneck -3.80045 -10.7655 -15.75
upperneck -6.21918 -13.5933 18.5967
head 1.2685 -6.71226 7.65566
rclavicle 3.49861e-014 -7.39479e-014
rhumerus -26.2018 0.891868 -61.378
rradius 71.2013
rwrist 8.83098
rhand -10.981 -44.7672
rfingers 7.12502
rthumb 15.0388 -74.201
lclavicle 3.49861e-014 -7.39479e-014
lhumerus 55.5245 -36.13 40.9636
lradius 84.3876
lwrist 17.8161
lhand 0.0638537 -3.93542
lfingers 7.12502
lthumb 25.6515 24.3565
rfemur -19.1834 -9.4468 24.2413
rtibia 2.94201e-014
rfoot -14.6759 -13.4807
rtoes -0.950302
lfemur -44.7869 -2.40066 -5.91722
ltibia 36.9276
lfoot -13.9852 5.48683
ltoes -56.5207
589
root -0.300252 18.7914 5.26772 23.7678 11.2951 -6.63359
lowerback 25.4602 3.91067 7.57934
upperback 5.21012 7.26664 2.97493
thorax -7.73131 3.30942 -3.25263
lowerneck -3.90869 -10.7336 -15.7125
upperneck -6.34434 -13.5237 18.8871
head 1.26325 -6.67781 7.74477
rclavicle 3.33958e-014 -4.77083e-015
rhumerus -26.647 1.03032 -61.5715
rradius 71.8227
rwrist 8.58272
rhand -11.1848 -44.9276
rfingers 7.12502
rthumb 14.8425 -74.376
lclavicle 3.33958e-014 -4.77083e-015
lhumerus 56.0171 -36.2023 41.1627
lradius 83.4242
lwrist 17.5193
lhand 0.01721 -3.92348
lfingers 7.12502
lthumb 25.6069 24.3749
rfemur -18.891 -9.65991 24.2484
rtibia 4.45278e-014
rfoot -14.7977 -13.4119
rtoes -0.801179
lfemur -44.6105 -2.54236 -5.9336
ltibia 36.991
lfoot -14.0667 5.41035
ltoes -56.4555
590
root -0.278831 18.787 5.26463 23.8026 11.3668 -6.73095
lowerback 25.5992 3.89417 7.47849
upperback 5.22184 7.22759 2.93957
thorax -7.80079 3.28862 -3.23608
lowerneck -3.9847 -10.713 -15.8502
upperneck -6.47136 -13.4681 19.3227
head 1.28006 -6.64973 7.90728
rclavicle -1.59028e-015 -4.29375e-014
rhumerus -27.0867 1.19579 -61.7495
rradius 72.4632
rwrist 8.20591
rhand -11.2894 -45.3304
rfingers 7.12502
rthumb 14.7417 -74.7862
lclavicle -1.59028e-015 -4.29375e-014
lhumerus 56.4645 -36.2828 41.3579
lradius 82.4187
lwrist 17.0289
lhand -0.136055 -4.1383
lfingers 7.12502
lthumb 25.46 24.1811
rfemur -18.9512 -9.70478 24.3099
rtibia 3.18055e-015
rfoot -14.8297 -13.4202
rtoes -0.826647
lfemur -44.7217 -2.48785 -5.92512
ltibia 37.0592
lfoot -14.1345 5.34437
ltoes -56.3331
